<?xml version="1.0" standalone="no"?>
<!DOCTYPE svg PUBLIC "-//W3C//DTD SVG 20010904//EN"
 "http://www.w3.org/TR/2001/REC-SVG-20010904/DTD/svg10.dtd">
<svg version="1.0" xmlns="http://www.w3.org/2000/svg"
 width="863.000000pt" height="863.000000pt" viewBox="0 0 863.000000 863.000000"
 preserveAspectRatio="xMidYMid meet">
<metadata>
Created by potrace 1.11, written by Peter Selinger 2001-2013
</metadata>
<g transform="translate(0.000000,863.000000) scale(0.100000,-0.100000)"
fill="#000000" stroke="none">
<path d="M6395 8613 c-10 -25 -195 -542 -205 -573 -5 -14 -27 -77 -50 -140
-23 -63 -55 -155 -72 -205 -17 -49 -35 -101 -41 -115 -14 -36 -97 -272 -102
-290 -2 -8 -21 -60 -41 -115 -20 -55 -47 -131 -61 -170 -13 -38 -28 -79 -33
-90 -4 -11 -25 -69 -45 -130 -20 -60 -40 -119 -45 -130 -6 -11 -23 -58 -39
-105 -40 -117 -100 -288 -161 -460 -29 -80 -56 -158 -62 -175 -5 -16 -12 -37
-16 -45 -3 -8 -6 -17 -7 -20 -1 -3 -4 -12 -7 -20 -3 -8 -13 -37 -23 -65 -9
-27 -28 -81 -42 -120 -34 -97 -30 -85 -85 -240 -27 -77 -63 -182 -81 -232 -17
-51 -34 -93 -37 -93 -6 0 -16 15 -75 115 -25 42 -63 104 -195 315 -57 91 -108
174 -114 185 -6 11 -45 74 -86 140 -41 66 -79 128 -85 137 -5 9 -33 54 -61
100 -54 86 -142 229 -176 286 l-20 32 -28 -42 c-35 -54 -287 -454 -309 -490
-24 -41 -346 -549 -416 -658 -34 -52 -67 -106 -74 -118 -7 -13 -14 -22 -17
-20 -2 2 -26 69 -54 149 -28 79 -65 182 -81 229 -17 47 -39 110 -49 140 -10
30 -38 107 -61 170 -23 63 -44 126 -47 140 -2 14 -8 30 -12 35 -4 6 -13 26
-18 45 -6 19 -25 73 -42 120 -17 47 -42 117 -55 155 -12 39 -27 81 -33 95 -6
14 -31 86 -57 160 -26 74 -50 144 -55 155 -13 32 -44 119 -46 130 -2 10 -16
49 -109 310 -26 72 -53 150 -61 175 -8 25 -19 54 -24 65 -9 20 -69 191 -74
210 -2 6 -6 17 -9 25 -4 8 -32 87 -62 175 -31 88 -64 180 -73 205 -9 25 -17
47 -18 50 0 3 -3 12 -7 20 -3 8 -51 143 -107 300 -56 157 -104 288 -106 292
-2 3 -27 -5 -54 -18 -27 -13 -52 -24 -55 -24 -18 0 -204 -123 -280 -185 -78
-63 -242 -225 -296 -292 -179 -221 -333 -482 -418 -708 -13 -33 -27 -69 -32
-80 -15 -35 -57 -177 -78 -260 -17 -73 -25 -112 -37 -185 -2 -14 -6 -34 -8
-45 -26 -123 -27 -535 -2 -675 2 -14 8 -47 12 -75 9 -62 7 -54 34 -161 35
-146 96 -316 178 -494 84 -185 129 -285 220 -495 54 -126 102 -238 105 -248 6
-17 1 -18 -61 -17 -37 1 -113 1 -170 1 l-103 -1 5 -42 c3 -24 8 -70 11 -103 4
-33 8 -73 10 -90 2 -16 7 -61 10 -100 3 -38 8 -83 10 -100 2 -16 7 -61 10 -98
4 -37 8 -76 10 -85 2 -15 9 -79 21 -217 2 -27 7 -66 9 -85 3 -19 8 -64 11
-100 4 -36 8 -74 9 -85 1 -11 3 -29 4 -40 1 -15 20 -31 64 -54 61 -32 91 -48
407 -216 85 -45 214 -113 285 -150 72 -38 136 -72 142 -78 10 -7 3 -21 -25
-56 -20 -25 -39 -48 -42 -51 -3 -3 -34 -41 -70 -85 l-65 -80 2 -190 c1 -104 4
-352 8 -550 4 -198 8 -400 9 -450 1 -49 4 -94 8 -100 7 -12 403 -13 415 -2 7
8 8 10 18 72 7 47 51 304 60 355 3 19 8 51 11 70 2 19 7 46 9 60 3 14 10 54
16 90 16 92 17 101 23 135 9 59 17 100 22 115 2 8 57 41 121 73 95 47 119 56
129 45 7 -7 177 -287 378 -623 201 -335 371 -617 376 -625 6 -8 145 -240 310
-515 165 -275 304 -507 309 -515 5 -8 31 -50 56 -94 39 -66 49 -76 60 -65 11
12 72 114 205 344 40 69 568 969 628 1070 36 61 74 126 85 145 43 77 301 517
322 550 12 19 64 107 115 195 51 88 94 161 95 163 2 2 58 -26 127 -62 86 -46
124 -71 124 -83 1 -21 41 -268 64 -388 5 -27 12 -68 15 -90 3 -22 7 -47 10
-55 2 -8 6 -37 10 -64 3 -27 12 -83 20 -125 8 -42 16 -93 20 -115 3 -21 7 -42
10 -46 2 -4 99 -7 215 -7 l210 0 1 61 c1 104 8 480 13 726 9 462 9 508 -6 524
-7 9 -18 21 -23 28 -6 7 -48 58 -93 114 -45 55 -82 103 -82 106 0 6 71 45 275
153 50 26 113 60 140 75 51 28 152 81 350 185 118 61 142 78 142 98 0 6 3 37
6 67 4 30 9 82 12 115 4 33 8 71 10 85 2 14 7 59 11 100 3 41 7 86 9 100 2 14
6 58 10 99 3 41 8 88 11 105 2 17 6 51 9 76 6 74 15 163 19 195 2 17 7 64 11
105 4 41 9 78 11 81 7 13 -21 15 -178 14 -87 0 -158 4 -158 9 0 8 100 245 140
331 10 22 52 117 93 210 41 94 86 195 100 225 14 30 34 77 46 103 60 133 139
391 156 512 3 22 10 63 15 90 5 28 9 57 9 65 0 8 3 49 7 90 12 142 8 341 -12
500 -23 190 -100 468 -175 637 -10 24 -19 45 -19 49 0 12 -110 223 -151 290
-50 83 -111 177 -119 184 -3 3 -26 32 -50 66 -125 170 -321 359 -486 469 -56
38 -240 135 -255 135 -4 0 -10 -8 -14 -17z"/>
</g>
</svg>
